#Comment line ignore any data following # character 
#Hierarchical Translation and Rotation (.htr) file 
[Header]	
#Header keywords are followed by a single value 
FileType HTR		#Single word string
DataType HTRS		#Translation followed by rotation and scale data
FileVersion 1		#integer
NumSegments 25		#integer
NumFrames 4		#integer
DataFrameRate 30		#integer, data frame rate in this file
EulerRotationOrder ZYX
CalibrationUnits mm
RotationUnits Degrees
GlobalAxisofGravity Y
BoneLengthAxis Y
ScaleFactor 1.00
[SegmentNames&Hierarchy]
#CHILD	PARENT
BN_Tick_Root GLOBAL
BN_Torso BN_Tick_Root
BN_L_Leg_Front01 BN_Torso
BN_L_Leg_Rear01 BN_Torso
BN_MetalTop BN_Torso
BN_Neck BN_Torso
BN_R_Leg_Front01 BN_Torso
BN_R_Leg_Rear01 BN_Torso
BN_Sack BN_Torso
BN_L_Leg_Front02 BN_L_Leg_Front01
BN_L_Leg_Front03 BN_L_Leg_Front02
BN_L_Leg_Rear02 BN_L_Leg_Rear01
BN_L_Leg_Rear03 BN_L_Leg_Rear02
BN_Head BN_Neck
BN_Needle BN_Head
BN_R_Leg_Front02 BN_R_Leg_Front01
BN_R_Leg_Front03 BN_R_Leg_Front02
BN_R_Leg_Rear02 BN_R_Leg_Rear01
BN_R_Leg_Rear03 BN_R_Leg_Rear02
BN_SackDef01 BN_Sack
BN_SackDef02 BN_Sack
BN_SackDef03 BN_Sack
BN_SackDef04 BN_Sack
BN_SackDef05 BN_Sack
BN_SackDef06 BN_Sack
[BasePosition]
#SegmentName Tx, Ty, Tz, Rx, Ry, Rz, BoneLength
BN_Tick_Root 0.000000 0.000000 0.000000 -90.000000 0.000000 0.000000 10.000000 
BN_Torso 0.000000 0.000000 0.000000 0.000000 0.000000 0.000000 10.000000 
BN_L_Leg_Front01 0.000000 0.000000 0.000000 0.000000 0.000000 0.000000 10.000000 
BN_L_Leg_Rear01 0.000000 0.000000 0.000000 0.000000 0.000000 0.000000 10.000000 
BN_MetalTop 0.000000 0.000000 0.000000 0.000000 0.000000 0.000000 10.000000 
BN_Neck 0.000000 0.000000 0.000000 0.000000 0.000000 0.000000 10.000000 
BN_R_Leg_Front01 0.000000 0.000000 0.000000 0.000000 0.000000 0.000000 10.000000 
BN_R_Leg_Rear01 0.000000 0.000000 0.000000 0.000000 0.000000 0.000000 10.000000 
BN_Sack 0.000000 0.000000 0.000000 0.000000 0.000000 0.000000 10.000000 
BN_L_Leg_Front02 0.000000 0.000000 0.000000 0.000000 0.000000 0.000000 10.000000 
BN_L_Leg_Front03 0.000000 0.000000 0.000000 0.000000 0.000000 0.000000 10.000000 
BN_L_Leg_Rear02 0.000000 0.000000 0.000000 0.000000 0.000000 0.000000 10.000000 
BN_L_Leg_Rear03 0.000000 0.000000 0.000000 0.000000 0.000000 0.000000 10.000000 
BN_Head 0.000000 0.000000 0.000000 0.000000 0.000000 0.000000 10.000000 
BN_Needle 0.000000 0.000000 0.000000 0.000000 0.000000 0.000000 10.000000 
BN_R_Leg_Front02 0.000000 0.000000 0.000000 0.000000 0.000000 0.000000 10.000000 
BN_R_Leg_Front03 0.000000 0.000000 0.000000 0.000000 0.000000 0.000000 10.000000 
BN_R_Leg_Rear02 0.000000 0.000000 0.000000 0.000000 0.000000 0.000000 10.000000 
BN_R_Leg_Rear03 0.000000 0.000000 0.000000 0.000000 0.000000 0.000000 10.000000 
BN_SackDef01 0.000000 0.000000 0.000000 0.000000 0.000000 0.000000 10.000000 
BN_SackDef02 0.000000 0.000000 0.000000 0.000000 0.000000 0.000000 10.000000 
BN_SackDef03 0.000000 0.000000 0.000000 0.000000 0.000000 0.000000 10.000000 
BN_SackDef04 0.000000 0.000000 0.000000 0.000000 0.000000 0.000000 10.000000 
BN_SackDef05 0.000000 0.000000 0.000000 0.000000 0.000000 0.000000 10.000000 
BN_SackDef06 0.000000 0.000000 0.000000 0.000000 0.000000 0.000000 10.000000 
#Beginning of Data. Separated by tabs
#Fr	Tx	Ty	Tz	Rx	Ry	Rz	SF
[BN_Tick_Root]
126 -142.750885 -251.687790 0.015590 0.000000 -0.000000 24.468620 289.351959
127 -167.270813 -196.650513 174.392105 0.000000 -0.000000 16.374941 311.550232
128 -220.753220 -65.359062 568.241028 0.000000 0.000000 -1.429317 613.108154
129 -273.090820 91.475861 987.700500 0.000000 0.000000 -19.232367 1028.833740
[BN_Torso]
126 -0.002061 0.003066 63.953548 -7.320404 -1.001846 2.131914 63.953548
127 -21.013357 38.484474 210.020889 27.750998 1.828467 -4.791104 214.549271
128 -38.490635 -16.949484 145.241837 66.516624 4.960228 -2.237466 151.208481
129 -6.207956 -92.245255 37.610043 97.892570 7.495572 0.779534 99.811020
[BN_L_Leg_Front01]
126 -68.477791 10.734189 -26.804373 -63.255783 18.007702 154.243210 74.316254
127 -68.477791 10.734189 -26.804373 -57.584766 18.044498 160.242432 74.316254
128 -68.477791 10.734189 -26.804373 -72.965736 23.605124 135.778946 74.316254
129 -68.477791 10.734189 -26.804373 -60.328003 51.257484 134.288605 74.316254
[BN_L_Leg_Rear01]
126 -72.133743 -73.994843 -18.268616 61.530308 26.875729 -131.742691 104.939293
127 -72.133743 -73.994843 -18.268616 97.083565 -15.265018 -103.527939 104.939293
128 -72.133743 -73.994843 -18.268616 52.883667 -41.532486 56.099297 104.939293
129 -72.133743 -73.994843 -18.268616 -30.132210 51.168404 85.019554 104.939293
[BN_MetalTop]
126 0.000008 13.737477 26.403606 90.000008 -12.928561 -89.999992 29.763546
127 0.000008 13.737477 26.403606 90.000008 -12.928561 -89.999992 29.763546
128 0.000008 13.737477 26.403606 90.000008 -12.928561 -89.999992 29.763546
129 0.000008 13.737477 26.403606 90.000008 -12.928561 -89.999992 29.763546
[BN_Neck]
126 0.000014 95.233284 10.002091 -90.003807 -65.297554 90.002632 95.757088
127 0.000014 95.233284 10.002091 -90.003235 -62.968307 90.002060 95.757088
128 0.000014 95.233284 10.002091 -90.002701 -60.631180 90.001503 95.757088
129 0.000014 95.233284 10.002091 -90.002281 -58.288242 90.001083 95.757088
[BN_R_Leg_Front01]
126 68.477768 10.734107 -26.804314 64.378105 21.019398 19.561543 74.316193
127 68.477768 10.734107 -26.804314 36.507137 18.728373 25.135084 74.316193
128 68.477768 10.734107 -26.804314 26.847803 34.612324 40.433876 74.316193
129 68.477768 10.734107 -26.804314 44.833324 67.260765 49.815636 74.316193
[BN_R_Leg_Rear01]
126 72.133751 -73.994873 -18.268644 -63.338474 31.095673 -52.916283 104.939331
127 72.133751 -73.994873 -18.268644 -53.688957 -0.801510 -11.839969 104.939331
128 72.133751 -73.994873 -18.268644 -52.137516 17.524097 32.929306 104.939331
129 72.133751 -73.994873 -18.268644 6.535395 56.939182 47.153934 104.939331
[BN_Sack]
126 -0.000000 -78.024918 33.657791 90.004089 12.108933 -89.997383 84.974907
127 -0.000000 -78.024918 33.657791 90.000008 15.802560 -90.001434 84.974907
128 -0.000000 -78.024918 33.657791 90.004433 19.690811 -89.996964 84.974907
129 -0.000000 -78.024918 33.657791 90.000496 23.362659 -90.000885 84.974907
[BN_L_Leg_Front02]
126 142.805023 -0.000015 -0.000104 0.378262 -18.699125 -125.468994 142.805023
127 142.805023 -0.000015 -0.000104 17.718641 -6.875148 147.096390 142.805023
128 142.805023 -0.000015 -0.000104 18.679058 1.117216 116.865685 142.805023
129 142.805023 -0.000015 -0.000104 9.604073 -11.863720 -174.808624 142.805023
[BN_L_Leg_Front03]
126 124.143021 -0.000045 0.000007 0.354709 -0.331234 132.076218 124.143021
127 124.143021 -0.000045 0.000007 0.353459 -0.065519 171.781876 124.143021
128 124.143021 -0.000045 0.000007 0.352812 0.002255 -179.672241 124.143021
129 124.143021 -0.000045 0.000007 0.353845 -0.162191 158.909821 124.143021
[BN_L_Leg_Rear02]
126 139.939041 0.000075 -0.000022 10.465923 -16.839882 80.591209 139.939041
127 139.939041 0.000075 -0.000022 -22.516989 -15.843883 -164.599823 139.939041
128 139.939041 0.000075 -0.000022 -165.546371 -9.496638 11.642597 139.939041
129 139.939041 0.000075 -0.000022 -161.234558 -0.140080 -40.136139 139.939041
[BN_L_Leg_Rear03]
126 142.839615 0.000179 -0.000060 0.000161 -0.002342 -97.843155 142.839615
127 142.839615 0.000179 -0.000060 0.001497 -0.001808 -169.263779 142.839615
128 142.839615 0.000179 -0.000060 0.001512 -0.001796 -170.183243 142.839615
129 142.839615 0.000179 -0.000060 0.001658 -0.001661 -179.891327 142.839615
[BN_Head]
126 57.062447 -0.000030 0.000000 0.001660 0.001660 0.001855 57.062447
127 57.062447 -0.000030 0.000000 0.001696 0.001629 2.330836 57.062447
128 57.062447 -0.000030 0.000000 0.001732 0.001596 4.667657 57.062447
129 57.062447 -0.000030 0.000000 0.001766 0.001562 7.010318 57.062447
[BN_Needle]
126 33.915112 69.677582 -0.000041 0.000003 0.000030 87.896805 77.493225
127 33.915112 69.677582 -0.000041 0.000003 0.000030 87.896805 77.493225
128 33.915112 69.677582 -0.000040 0.000003 0.000030 87.896805 77.493225
129 33.915108 69.677582 -0.000040 0.000003 0.000030 87.896805 77.493225
[BN_R_Leg_Front02]
126 142.804947 -0.000060 0.000060 0.486567 -23.574953 122.567528 142.804947
127 142.804947 -0.000060 0.000060 -5.949656 -22.302607 143.446396 142.804947
128 142.804947 -0.000060 0.000060 -5.693768 -20.780466 143.892242 142.804947
129 142.804947 -0.000060 0.000060 -2.476601 -19.008146 133.497452 142.804947
[BN_R_Leg_Front03]
126 124.143005 -0.000060 -0.000156 -0.355318 -0.343428 -129.876236 124.143005
127 124.143005 -0.000060 -0.000156 -0.351371 -0.266226 -143.578812 124.143005
128 124.143005 -0.000060 -0.000156 -0.355248 -0.265782 -143.932068 124.143005
129 124.143005 -0.000060 -0.000156 -0.352982 -0.300025 -137.685623 124.143005
[BN_R_Leg_Rear02]
126 139.939011 -0.000149 0.000015 -2.095580 -13.463095 -108.107590 139.939011
127 139.939011 -0.000149 0.000015 6.069216 -15.858347 -147.503662 139.939011
128 139.939011 -0.000149 0.000015 12.953723 -18.501957 -167.392380 139.939011
129 139.939011 -0.000149 0.000015 17.466936 -21.729837 -173.050003 139.939011
[BN_R_Leg_Rear03]
126 142.839417 0.000075 0.000119 0.002222 -0.000756 127.571053 142.839417
127 142.839417 0.000075 0.000119 0.001994 -0.001238 153.659256 142.839417
128 142.839417 0.000075 0.000119 0.001908 -0.001367 161.214813 142.839417
129 142.839417 0.000075 0.000119 0.001890 -0.001391 162.705902 142.839417
[BN_SackDef01]
126 249.782272 -3.760844 42.949425 -128.408218 -44.374973 -11.740845 253.475800
127 249.782272 -3.760844 42.949425 -128.408218 -44.374973 -11.740845 253.475800
128 249.782272 -3.760844 42.949425 -128.408218 -44.374973 -11.740845 253.475800
129 249.782272 -3.760844 42.949425 -128.408218 -44.374973 -11.740845 253.475800
[BN_SackDef02]
126 138.789795 -62.131748 45.674385 32.077126 -27.375721 -88.781525 158.773758
127 138.789795 -62.131748 45.674385 32.077126 -27.375721 -88.781525 158.773758
128 138.789795 -62.131748 45.674385 32.077126 -27.375721 -88.781525 158.773758
129 138.789795 -62.131748 45.674385 32.077126 -27.375721 -88.781525 158.773758
[BN_SackDef03]
126 249.782272 -3.760785 -42.949661 18.144459 44.375008 -11.740894 253.475845
127 249.782272 -3.760785 -42.949661 18.144459 44.375008 -11.740894 253.475845
128 249.782272 -3.760785 -42.949661 18.144459 44.375008 -11.740894 253.475845
129 249.782272 -3.760785 -42.949661 18.144459 44.375008 -11.740894 253.475845
[BN_SackDef04]
126 138.789780 -62.131645 -45.674473 146.059982 27.375723 -88.781555 158.773743
127 138.789780 -62.131645 -45.674473 146.059982 27.375723 -88.781555 158.773743
128 138.789780 -62.131645 -45.674473 146.059982 27.375723 -88.781555 158.773743
129 138.789780 -62.131645 -45.674473 146.059982 27.375723 -88.781555 158.773743
[BN_SackDef05]
126 118.790161 46.167137 -63.831196 0.155741 51.314110 90.605110 142.537460
127 118.790161 46.167137 -63.831196 0.155741 51.314110 90.605110 142.537460
128 118.790161 46.167137 -63.831196 0.155741 51.314110 90.605110 142.537460
129 118.790161 46.167137 -63.831196 0.155741 51.314110 90.605110 142.537460
[BN_SackDef06]
126 118.790207 46.167194 63.831219 152.058487 -51.314072 90.605019 142.537537
127 118.790207 46.167194 63.831219 152.058487 -51.314072 90.605019 142.537537
128 118.790207 46.167194 63.831219 152.058487 -51.314072 90.605019 142.537537
129 118.790207 46.167194 63.831219 152.058487 -51.314072 90.605019 142.537537
